<svg width="489" style="max-width: 50px;" height="489" viewBox="0 0 489 489" fill="none" xmlns="http://www.w3.org/2000/svg">
<g clip-path="url(#clip0_35_2)">

<path d="M326.9 67.166C333.6 52.666 340.4 38.266 347.5 22.966C268.9 -10.134 192.3 -8.53399 119.1 35.066C48.3 77.166 9.9 141.166 0 223.566C16.8 225.066 32.7 226.466 48.6 227.766C57.3 103.266 194.9 7.766 326.9 67.166Z" fill="#01A29A"/>
<path d="M47.9 262.066C32.8 263.366 17.1 264.766 1.40002 266.066C5.10002 365.566 91.9 477.566 222.8 488.166C224.2 472.066 225.6 456.266 226.9 440.966C124.5 423.866 65.2 364.566 47.9 262.066Z" fill="#B00020"/>
<path d="M395.993 125.566C407.362 141.366 416.122 158.766 422.925 177.966C437.09 172.466 451.069 166.966 465.7 161.266C448.832 113.066 421.341 74.666 382.294 44.566C373.627 57.866 365.053 70.866 356.2 84.466C371.297 96.366 384.717 109.866 395.993 125.566Z" fill="#CCCCCC"/>
<path d="M267.2 384.2V365.1C283.5 362 299.3 355.5 313.5 345.7L327.1 359.3C332.2 364.3 340.3 364.3 345.4 359.3L359.5 345.2C364.5 340.1 364.5 332 359.5 326.9L345.7 313.1C355.3 298.9 361.6 283.1 364.6 266.9H384.2C391.3 266.9 397.1 261.1 397.1 254V234C397.1 226.9 391.3 221.1 384.2 221.1H364.5C361.4 204.9 355 189.3 345.4 175.2L359.4 161.2C364.4 156.1 364.4 148 359.4 142.9L345.1 128.7C340 123.7 331.9 123.7 326.8 128.7L312.8 142.7C298.7 133.1 283 126.7 266.8 123.6V103.9C266.8 96.8 261 91 253.9 91H233.9C226.8 91 221 96.8 221 103.9V123.5C204.8 126.5 189 132.9 174.8 142.5L161.1 128.9C156 123.9 147.9 123.9 142.8 128.9L128.7 143.1C123.7 148.2 123.7 156.3 128.7 161.4L142.3 175C132.5 189.2 126.1 205 123 221.3H103.9C96.8 221.3 91 227.1 91 234.2V254.2C91 261.3 96.8 267.1 103.9 267.1H122.9C126 283.5 132.4 299.4 142.1 313.6L128.9 327.1C123.9 332.2 123.9 340.3 128.9 345.4L143 359.5C148.1 364.5 156.2 364.5 161.3 359.5L174.7 346.1C189 355.8 204.9 362.2 221.3 365.3V384.3C221.3 391.4 227.1 397.2 234.2 397.2H254.2C261.4 397.1 267.2 391.3 267.2 384.2ZM197 291.3C171 265.3 170.9 223.1 196.9 197.1C222.9 171.1 265.1 171 291.1 197C317.1 223 317.2 265.2 291.2 291.2C265.3 317.2 223.1 317.3 197 291.3Z" fill="rgb(70 68 68)"/>
</g>
<defs>
<clipPath id="clip0_35_2">
<rect width="488.189" height="488.189" fill="white"/>
</clipPath>
</defs>
</svg>
