<svg width="38" height="51" viewBox="0 0 38 51" fill="none" xmlns="http://www.w3.org/2000/svg">
<path d="M22.07 26.1835V27.0345H16.7347V26.2899L19.4052 23.3171C19.7336 22.9514 19.9874 22.6416 20.1666 22.3878C20.3494 22.1303 20.4763 21.9007 20.5472 21.6992C20.6219 21.4939 20.6592 21.2849 20.6592 21.0722C20.6592 20.8035 20.6032 20.5609 20.4913 20.3444C20.383 20.1242 20.2225 19.9488 20.0098 19.8181C19.7971 19.6875 19.5395 19.6222 19.2372 19.6222C18.8752 19.6222 18.5729 19.6931 18.3303 19.8349C18.0914 19.973 17.9123 20.1671 17.7928 20.4172C17.6734 20.6672 17.6137 20.9546 17.6137 21.2793H16.578C16.578 20.8203 16.6788 20.4004 16.8803 20.0197C17.0818 19.639 17.3804 19.3367 17.776 19.1127C18.1717 18.8851 18.6587 18.7712 19.2372 18.7712C19.7523 18.7712 20.1927 18.8627 20.5584 19.0456C20.9242 19.2247 21.2041 19.4785 21.3982 19.8069C21.596 20.1317 21.6949 20.5123 21.6949 20.949C21.6949 21.1879 21.6539 21.4305 21.5718 21.6768C21.4934 21.9194 21.3833 22.162 21.2414 22.4046C21.1034 22.6472 20.941 22.8861 20.7544 23.1212C20.5715 23.3563 20.3756 23.5877 20.1666 23.8154L17.9832 26.1835H22.07ZM26.5823 18.8384V27.0345H25.5466V20.1317L23.4584 20.893V19.9581L26.42 18.8384H26.5823Z" fill="#FF7600"/>
<rect x="0.163793" y="0.163793" width="37.6724" height="49.7931" rx="6.38793" fill="#1D1D1D" stroke="#BBBBBB" stroke-width="0.327586"/>
<path d="M20.1841 28.054H17.1589C17.1668 27.3421 17.2222 26.7292 17.325 26.2151C17.4357 25.6931 17.6216 25.2225 17.8826 24.8033C18.1515 24.3841 18.5074 23.9689 18.9503 23.5576C19.322 23.2254 19.6463 22.909 19.9231 22.6085C20.2 22.308 20.4175 21.9995 20.5757 21.6831C20.7338 21.3589 20.8129 20.999 20.8129 20.6035C20.8129 20.1448 20.7417 19.7652 20.5994 19.4646C20.4649 19.1561 20.2593 18.9228 19.9825 18.7646C19.7136 18.6065 19.3735 18.5274 18.9622 18.5274C18.6221 18.5274 18.3057 18.6025 18.0131 18.7528C17.7204 18.8951 17.4792 19.1166 17.2894 19.4172C17.1075 19.7177 17.0126 20.1132 17.0047 20.6035H13.5642C13.5879 19.52 13.837 18.6262 14.3116 17.9223C14.794 17.2105 15.4386 16.6845 16.2454 16.3444C17.0521 15.9964 17.9577 15.8224 18.9622 15.8224C20.0695 15.8224 21.0186 16.0043 21.8095 16.3682C22.6004 16.7241 23.2055 17.25 23.6246 17.946C24.0438 18.6341 24.2534 19.4725 24.2534 20.4612C24.2534 21.1493 24.119 21.7622 23.85 22.3C23.5811 22.83 23.2292 23.3243 22.7942 23.783C22.3592 24.2417 21.8807 24.7163 21.3587 25.2067C20.9078 25.61 20.5994 26.0332 20.4333 26.4761C20.2751 26.919 20.1921 27.445 20.1841 28.054ZM16.803 31.7199C16.803 31.2137 16.977 30.7945 17.325 30.4623C17.673 30.1222 18.1396 29.9522 18.7249 29.9522C19.3023 29.9522 19.765 30.1222 20.113 30.4623C20.4689 30.7945 20.6468 31.2137 20.6468 31.7199C20.6468 32.2102 20.4689 32.6255 20.113 32.9656C19.765 33.3057 19.3023 33.4757 18.7249 33.4757C18.1396 33.4757 17.673 33.3057 17.325 32.9656C16.977 32.6255 16.803 32.2102 16.803 31.7199Z" fill="#777171"/>
</svg>
